# xmcd
# Track frame offsets:
# 182
# 12580
# 26130
# 42112
# 65842
# 85447
# 105360
# 120762
# 139425
# 154177
# 179922
# 195165
#
# Disc length: 2895 seconds
# Revision: 0
# Processed by: cddbd v1.4PL0 Copyright (c) Steve Scherf et al.
# Submitted via: VisiTrax 2.9.5.180 - For more info visit www.synapsa.com
#
DISCID=a30b4d0c
DTITLE=Bobby Bare - Live At Gilley's
DYEAR=1900
DGENRE=
TTITLE0=Good For Nothing Blues
TTITLE1=Drunk And Crazy
TTITLE2=Come Sundown
TTITLE3=Medley: 500 Miles Away From Home, Four Strong Winds, Shame On Me
TTITLE4=Ride Me Down Easy
TTITLE5=Tequila Sheila
TTITLE6=Detroit City
TTITLE7=Marie Laveau
TTITLE8=Dropkick Me Jesus
TTITLE9=Up Against The Wall Redneck
TTITLE10=I've Never Been To Bed With An Ugly Woman
TTITLE11=The Jogger
EXTD=
EXTT0=
EXTT1=
EXTT2=
EXTT3=
EXTT4=
EXTT5=
EXTT6=
EXTT7=
EXTT8=
EXTT9=
EXTT10=
EXTT11=
PLAYORDER=
